<svg width="295" height="211" viewBox="0 0 295 211" fill="none" xmlns="http://www.w3.org/2000/svg">
<g clip-path="url(#clip0_258_16191)">
<path d="M21.9355 0H21.9314C9.81901 0 0 9.83511 0 21.9673V189.033C0 201.165 9.81901 211 21.9314 211H21.9355C34.0479 211 43.8669 201.165 43.8669 189.033V21.9673C43.8669 9.83511 34.0479 0 21.9355 0Z" fill="white"/>
<path d="M278.526 83.5306H101.267V56.7521C101.267 49.1727 107.398 43.0313 114.965 43.0313H180.685C189.782 43.0313 197.155 35.6467 197.155 26.534V16.4973C197.155 7.38461 189.782 0 180.685 0H79.3352C67.2214 0 57.4038 9.83785 57.4038 21.9673V189.029C57.4038 201.162 67.2256 210.996 79.3352 210.996C91.449 210.996 101.267 201.158 101.267 189.029V121.759H278.521C287.619 121.759 294.996 114.37 294.996 105.258V100.032C294.996 90.9193 287.619 83.5306 278.521 83.5306H278.526Z" fill="white"/>
</g>
<defs>
<clipPath id="clip0_258_16191">
<rect width="295" height="211" fill="white"/>
</clipPath>
</defs>
</svg>
