<svg width="25" height="24" viewBox="0 0 25 24" fill="none" xmlns="http://www.w3.org/2000/svg">
<g id="Icontyl/Line/Login 2">
<g id="icon">
<path id="Vector 250 (Stroke)" fill-rule="evenodd" clip-rule="evenodd" d="M1.75037 11.9998C1.75036 11.5856 2.08615 11.2498 2.50036 11.2498L12.6071 11.2497C13.0213 11.2497 13.3571 11.5855 13.3571 11.9997C13.3571 12.4139 13.0213 12.7497 12.6071 12.7497L2.50037 12.7498C2.08616 12.7498 1.75037 12.414 1.75037 11.9998Z" fill="#14142B"/>
<path id="Vector 252 (Stroke)" fill-rule="evenodd" clip-rule="evenodd" d="M9.99535 16.1572C9.6719 15.8985 9.61946 15.4265 9.87822 15.103L12.3605 12.0001L9.87822 8.89723C9.61946 8.57379 9.6719 8.10182 9.99535 7.84306C10.3188 7.5843 10.7908 7.63675 11.0495 7.96019L13.8567 11.4692C14.105 11.7796 14.105 12.2207 13.8567 12.5311L11.0495 16.0401C10.7908 16.3635 10.3188 16.416 9.99535 16.1572Z" fill="#14142B"/>
<path id="Vector 280 (Stroke)" fill-rule="evenodd" clip-rule="evenodd" d="M20.5 3.25L12.5 3.25003C12.3619 3.25003 12.25 3.36196 12.25 3.50003V4.14289C12.25 4.5571 11.9142 4.89289 11.5 4.89289C11.0858 4.89289 10.75 4.5571 10.75 4.14289V3.50003C10.75 2.53353 11.5335 1.75003 12.5 1.75003L20.5 1.75C21.4665 1.75 22.25 2.5335 22.25 3.5V20.5C22.25 21.4665 21.4665 22.25 20.5 22.25H12.5C11.5335 22.25 10.75 21.4665 10.75 20.5V19.8572C10.75 19.443 11.0858 19.1072 11.5 19.1072C11.9142 19.1072 12.25 19.443 12.25 19.8572V20.5C12.25 20.6381 12.3619 20.75 12.5 20.75H20.5C20.6381 20.75 20.75 20.6381 20.75 20.5V3.5C20.75 3.36193 20.6381 3.25 20.5 3.25Z" fill="#14142B"/>
</g>
</g>
</svg>
