<svg width="104" height="90" viewBox="0 0 104 90" fill="none" xmlns="http://www.w3.org/2000/svg">
<path d="M83.135 57.3397L73.1984 73.9283L71.6102 64.5719L64.3144 60.0101L52.0325 61.9764L42.0492 70.5834L38.3972 71.2423L40.3736 50.5646L51.0575 40.5267L66.6177 40.1943L83.135 57.3397Z" fill="#050505"/>
<path d="M83.913 54.5185L67.7909 37.7L49.9808 38.0936L37.9646 49.3799L35.8331 71.7017L27.4919 73.2077L11.9971 67.0081L3.11035 58.6408L18.5673 37.1997L38.6258 27.1704L62.1544 28.6122L75.2639 40.045L83.913 54.5185Z" fill="#050505"/>
<path d="M86.5947 33.0915L84.261 50.8019L76.9816 38.7557L76.8772 38.5402L63.1873 26.1621L38.1068 24.6225L16.8937 35.23L2.07888 55.7803L0 46.205L7.49409 24.2243L11.0436 19.9219L37.2265 7.78223L64.9194 9.66042L86.5947 33.0915Z" fill="#050505"/>
<path d="M103.135 44.246L100.907 59.9539L85.5589 83.5911L70.5057 90L73.7009 77.9815L85.7612 57.8392L85.9307 57.3579L89.2374 32.2501L66.0841 7.22444L36.7554 5.23713L14.7329 15.4464L19.5414 9.61505L37.5273 1.68375L60.7515 0L84.3794 9.62869L100.922 29.5263L103.135 44.246Z" fill="#050505"/>
</svg>
