<svg width="90" height="90" viewBox="0 0 90 90" fill="none" xmlns="http://www.w3.org/2000/svg">
<path d="M44.6172 75C44.6172 83.0039 38.121 89.5 30.1172 89.5C22.1133 89.5 15.6172 83.0039 15.6172 75C15.6172 66.9961 22.1133 60.5 30.1172 60.5H44.6172V75Z" fill="#050505" stroke="white"/>
<path d="M15.6172 45C15.6172 36.9961 22.1133 30.5 30.1172 30.5H44.6172V59.5H30.1172C22.1133 59.5 15.6172 53.0039 15.6172 45Z" fill="#050505" stroke="white"/>
<path d="M15.6172 15C15.6172 6.99614 22.1133 0.5 30.1172 0.5H44.6172V29.5H30.1172C22.1133 29.5 15.6172 23.0039 15.6172 15Z" fill="#050505" stroke="white"/>
<path d="M45.6172 0.5H60.1172C68.121 0.5 74.6172 6.99614 74.6172 15C74.6172 23.0039 68.121 29.5 60.1172 29.5H45.6172V0.5Z" fill="#050505" stroke="white"/>
<path d="M74.6172 45C74.6172 53.0039 68.121 59.5 60.1172 59.5C52.1133 59.5 45.6172 53.0039 45.6172 45C45.6172 36.9961 52.1133 30.5 60.1172 30.5C68.121 30.5 74.6172 36.9961 74.6172 45Z" fill="#050505" stroke="white"/>
</svg>
