<svg width="90" height="90" viewBox="0 0 90 90" fill="none" xmlns="http://www.w3.org/2000/svg">
<g clip-path="url(#clip0_276_1931)">
<path d="M41.1607 1.60116L1.59532 41.134C-0.531775 43.2593 -0.531775 46.6921 1.59532 48.8174L41.1607 88.3502C43.2878 90.4756 46.7234 90.4756 48.8505 88.3502L65.4397 71.7747C67.3446 69.8713 67.3446 66.7853 65.4397 64.8819C63.5347 62.9785 60.4461 62.9785 58.5411 64.8819L45.965 77.4477C45.4356 77.9766 44.6321 77.9766 44.1026 77.4477L12.5069 45.8779C11.9775 45.3489 11.9775 44.546 12.5069 44.017L44.1026 12.4473C44.6321 11.9183 45.4356 11.9183 45.965 12.4473L58.5411 25.0131C60.4461 26.9165 63.5347 26.9165 65.4397 25.0131C67.3446 23.1097 67.3446 20.0236 65.4397 18.1202L48.8523 1.54648C46.7165 -0.532871 43.2796 -0.516038 41.1607 1.60116Z" fill="#050505"/>
<path d="M41.1607 1.60116L1.59532 41.134C-0.531775 43.2593 -0.531775 46.6921 1.59532 48.8174L41.1607 88.3502C43.2878 90.4756 46.7234 90.4756 48.8505 88.3502L65.4397 71.7747C67.3446 69.8713 67.3446 66.7853 65.4397 64.8819C63.5347 62.9785 60.4461 62.9785 58.5411 64.8819L45.965 77.4477C45.4356 77.9766 44.6321 77.9766 44.1026 77.4477L12.5069 45.8779C11.9775 45.3489 11.9775 44.546 12.5069 44.017L44.1026 12.4473C45.4209 11.3108 47.5718 9.00892 50.7304 8.47054C53.0778 8.07044 55.6442 8.95107 58.4295 11.1124C56.5673 9.25181 53.3749 6.06316 48.8523 1.54648C46.7165 -0.532871 43.2796 -0.516038 41.1607 1.60116Z" fill="#050505"/>
<path d="M69.2693 61.2053C71.1743 63.1087 74.2629 63.1087 76.1678 61.2053L88.4048 48.9784C90.5319 46.8531 90.5319 43.4203 88.4051 41.2952L76.0614 29.0054C74.1519 27.1042 71.0624 27.107 69.1563 29.0115C67.2513 30.9149 67.2513 34.0009 69.1563 35.9043L77.4932 44.2345C78.0227 44.7635 78.0227 45.5663 77.4932 46.0953L69.2693 54.3125C67.3643 56.2159 67.3643 59.3019 69.2693 61.2053Z" fill="#797979"/>
<path d="M45.2031 55.8472C51.103 55.8472 55.8858 51.0684 55.8858 45.1734C55.8858 39.2784 51.103 34.4995 45.2031 34.4995C39.3033 34.4995 34.5205 39.2784 34.5205 45.1734C34.5205 51.0684 39.3033 55.8472 45.2031 55.8472Z" fill="#797979"/>
</g>
<defs>
<clipPath id="clip0_276_1931">
<rect width="90" height="90" fill="white"/>
</clipPath>
</defs>
</svg>
