<svg width="90" height="74" viewBox="0 0 90 74" fill="none" xmlns="http://www.w3.org/2000/svg">
<path d="M46.92 41.1085C47.0883 38.1067 48.5583 35.462 50.7759 33.5872C52.9507 31.7458 55.8779 30.6204 59.0718 30.6204C62.2625 30.6204 65.1897 31.7458 67.3661 33.5872C69.5821 35.462 71.0521 38.1066 71.2219 41.1053C71.3902 44.1897 70.1504 47.055 67.9757 49.1789C65.758 51.3394 62.6038 52.6951 59.0718 52.6951C55.5398 52.6951 52.3792 51.3394 50.1631 49.1789C47.9868 47.055 46.7502 44.1897 46.92 41.1085Z" fill="black"/>
<path d="M27.5663 47.1723C27.5869 48.347 27.9615 50.6298 28.5235 52.4124C29.7045 56.1857 31.7079 59.6765 34.4954 62.7529C37.3559 65.915 40.8784 68.4549 44.947 70.2582C49.2236 72.152 53.8572 73.1172 58.6703 73.1093C63.4754 73.1029 68.1092 72.1187 72.3857 70.2106C76.4543 68.3898 79.9736 65.8389 82.8293 62.6751C85.6153 59.586 87.6155 56.0889 88.7997 52.3156C89.395 50.4091 89.7712 48.474 89.922 46.5326C90.0696 44.6197 90.0077 42.7037 89.7363 40.7893C89.2061 37.0588 87.9155 33.5585 85.928 30.3678C84.1104 27.4358 81.7674 24.869 78.9815 22.7085L78.9878 22.7037L50.8729 1.11633C50.8475 1.09728 50.8268 1.07667 50.7999 1.05921C48.9553 -0.356772 45.8534 -0.352002 43.8247 1.06716C41.7738 2.50219 41.5388 4.87536 43.3643 6.3723L43.3564 6.38025L55.0827 15.9159L19.3418 15.954H19.2942C16.34 15.9572 13.5001 17.8954 12.9382 20.3448C12.3603 22.8403 14.3668 24.9103 17.4385 24.9214L17.4337 24.9325L35.5494 24.8976L3.22309 49.7106C3.18182 49.7408 3.13736 49.7725 3.09927 49.8027C0.0498196 52.1378 -0.935949 56.0206 0.984837 58.478C2.9342 60.9766 7.07897 60.9813 10.1602 58.4923L27.8028 44.053C27.8028 44.053 27.5456 46.0024 27.5663 47.1723ZM72.9016 53.6998C69.2664 57.4033 64.1771 59.5035 58.6703 59.5146C53.1556 59.5241 48.0663 57.443 44.4311 53.7459C42.6548 51.9441 41.3499 49.871 40.5451 47.6629C39.7561 45.4928 39.4498 43.1895 39.6529 40.8655C39.845 38.5939 40.5213 36.427 41.6007 34.4666C42.6611 32.5394 44.1216 30.798 45.9249 29.3249C49.4585 26.4453 53.9573 24.8864 58.6624 24.8801C63.3723 24.8737 67.8679 26.4183 71.4047 29.2884C73.2048 30.7552 74.6636 32.4902 75.7241 34.4142C76.8083 36.3731 77.4797 38.532 77.6798 40.8099C77.8798 43.1307 77.5734 45.4309 76.7845 47.6025C75.978 49.817 74.6779 51.8901 72.9016 53.6998Z" fill="black"/>
</svg>
