<svg width="90" height="90" viewBox="0 0 90 90" fill="none" xmlns="http://www.w3.org/2000/svg">
<path d="M46.79 48.8617C46.9327 46.316 48.1793 44.0732 50.0599 42.4833C51.9042 40.9217 54.3866 39.9673 57.0952 39.9673C59.8011 39.9673 62.2835 40.9217 64.1292 42.4833C66.0085 44.0732 67.255 46.316 67.3991 48.859C67.5418 51.4747 66.4904 53.9046 64.6461 55.7058C62.7655 57.538 60.0905 58.6877 57.0952 58.6877C54.0999 58.6877 51.4196 57.538 49.5403 55.7058C47.6946 53.9046 46.6459 51.4747 46.79 48.8617Z" fill="#848484"/>
<path d="M30.3774 54.0042C30.3949 55.0004 30.7127 56.9363 31.1892 58.4481C32.1908 61.648 33.8897 64.6083 36.2536 67.2173C38.6795 69.8989 41.6668 72.0528 45.1171 73.5821C48.7438 75.1882 52.6734 76.0067 56.7551 76C60.83 75.9946 64.7596 75.1599 68.3863 73.5418C71.8367 71.9977 74.8212 69.8343 77.243 67.1513C79.6056 64.5316 81.3019 61.5659 82.3061 58.366C82.811 56.7492 83.13 55.1081 83.2579 53.4617C83.3831 51.8396 83.3306 50.2147 83.1004 48.5911C82.6508 45.4275 81.5563 42.4592 79.8708 39.7533C78.3294 37.2668 76.3424 35.09 73.9798 33.2578L73.9852 33.2538L50.1425 14.9467C50.1209 14.9305 50.1035 14.9131 50.0806 14.8983C48.5163 13.6974 45.8858 13.7015 44.1653 14.905C42.426 16.122 42.2268 18.1345 43.7749 19.404L43.7682 19.4107L53.7126 27.4974L23.4027 27.5297H23.3624C20.8571 27.5324 18.4487 29.1761 17.9721 31.2533C17.4821 33.3696 19.1837 35.125 21.7886 35.1344L21.7846 35.1439L37.1475 35.1143L9.73332 56.1568C9.69832 56.1824 9.66063 56.2093 9.62832 56.2349C7.04225 58.2152 6.20627 61.508 7.83519 63.5919C9.48833 65.7109 13.0033 65.7149 15.6163 63.6041L30.578 51.3589C30.578 51.3589 30.3599 53.0121 30.3774 54.0042ZM68.8238 59.5398C65.741 62.6805 61.4251 64.4616 56.7551 64.471C52.0783 64.4791 47.7624 62.7142 44.6796 59.5789C43.1732 58.051 42.0666 56.2928 41.384 54.4202C40.715 52.58 40.4552 50.6266 40.6275 48.6558C40.7904 46.7293 41.3639 44.8918 42.2793 43.2292C43.1786 41.5949 44.4171 40.1181 45.9464 38.8688C48.943 36.4268 52.7582 35.1048 56.7483 35.0994C60.7425 35.094 64.555 36.4039 67.5544 38.8379C69.081 40.0818 70.3181 41.5532 71.2174 43.1848C72.1369 44.846 72.7063 46.6768 72.8759 48.6086C73.0455 50.5768 72.7857 52.5275 72.1167 54.3691C71.4328 56.2471 70.3302 58.0052 68.8238 59.5398Z" fill="black"/>
</svg>
