<svg width="90" height="90" viewBox="0 0 90 90" fill="none" xmlns="http://www.w3.org/2000/svg">
<path fill-rule="evenodd" clip-rule="evenodd" d="M83.97 26.9093C83.9694 25.4353 83.6542 24.1328 83.0167 23.0149C82.3904 21.9157 81.4526 20.9944 80.1947 20.2659C69.8111 14.2787 59.4174 8.30975 49.0372 2.3164C46.2387 0.700798 43.5254 0.759697 40.7477 2.39849C36.6147 4.83593 15.9222 16.6911 9.75616 20.2626C7.2168 21.7326 5.98114 23.9824 5.98053 26.9065C5.97656 38.9473 5.98053 50.9877 5.97656 63.0287C5.97717 64.4703 6.27899 65.7475 6.88843 66.8486C7.51495 67.9811 8.46588 68.9277 9.75281 69.6727C15.9192 73.2441 36.6144 85.0984 40.7465 87.5364C43.5254 89.1761 46.2387 89.2347 49.0381 87.6185C59.4186 81.6249 69.8129 75.6562 80.1981 69.669C81.485 68.9244 82.4359 67.9771 83.0624 66.8455C83.671 65.7444 83.9734 64.4673 83.974 63.0253C83.974 63.0253 83.974 38.9503 83.97 26.9093" fill="#050505"/>
<path fill-rule="evenodd" clip-rule="evenodd" d="M45.0946 44.8501L6.88843 66.8484C7.51495 67.9809 8.46588 68.9276 9.75281 69.6725C15.9192 73.244 36.6144 85.0982 40.7465 87.5363C43.5254 89.176 46.2387 89.2346 49.0381 87.6184C59.4186 81.6247 69.8129 75.6561 80.1981 69.6688C81.485 68.9242 82.4359 67.9769 83.0624 66.8453L45.0946 44.8501" fill="#050505"/>
<path fill-rule="evenodd" clip-rule="evenodd" d="M33.7783 51.3662C36.0015 55.2474 40.1809 57.8652 44.9752 57.8652C49.7991 57.8652 54.0023 55.2142 56.2142 51.2914L45.0945 44.8501L33.7783 51.3662" fill="#050505"/>
<path fill-rule="evenodd" clip-rule="evenodd" d="M83.9702 26.9092C83.9695 25.4352 83.6543 24.1328 83.0168 23.0149L45.0947 44.8502L83.0626 66.8455C83.6711 65.7444 83.9735 64.4672 83.9741 63.0253C83.9741 63.0253 83.9741 38.9503 83.9702 26.9092" fill="#050505"/>
<path fill-rule="evenodd" clip-rule="evenodd" d="M81.8823 46.4223H78.9153V49.3898H75.9478V46.4223H72.9812V43.4557H75.9478V40.4888H78.9153V43.4557H81.8823V46.4223" fill="white"/>
<path fill-rule="evenodd" clip-rule="evenodd" d="M71.0562 46.4223H68.0896V49.3898H65.1227V46.4223H62.1558V43.4557H65.1227V40.4888H68.0896V43.4557H71.0562V46.4223" fill="white"/>
<path fill-rule="evenodd" clip-rule="evenodd" d="M56.2143 51.2916C54.0024 55.2143 49.7992 57.8654 44.9753 57.8654C40.181 57.8654 36.0016 55.2476 33.7784 51.3663C32.6984 49.4803 32.0773 47.2968 32.0773 44.9674C32.0773 37.8443 37.8522 32.0698 44.9753 32.0698C49.7388 32.0698 53.8962 34.6549 56.1304 38.4965L67.4039 32.0048C62.923 24.2698 54.5572 19.0659 44.9753 19.0659C30.6699 19.0659 19.0735 30.6626 19.0735 44.9674C19.0735 49.6604 20.322 54.0613 22.504 57.8574C26.9736 65.6333 35.3632 70.8692 44.9753 70.8692C54.6051 70.8692 63.0078 65.6122 67.471 57.8135L56.2143 51.2916" fill="white"/>
</svg>
