<svg width="90" height="90" viewBox="0 0 90 90" fill="none" xmlns="http://www.w3.org/2000/svg">
<path fill-rule="evenodd" clip-rule="evenodd" d="M12.4957 81.0029L5.27344 0H84.6341L77.4042 80.9896L44.9058 90L12.4957 81.0029Z" fill="#050505"/>
<path fill-rule="evenodd" clip-rule="evenodd" d="M45.0205 83.1085L71.2482 75.8932L77.3933 6.74585H45.0205V83.1085Z" fill="#050505"/>
<path fill-rule="evenodd" clip-rule="evenodd" d="M21.8052 36.506L22.6752 46.4261L45.0206 36.506V26.5698L21.8052 36.506Z" fill="#B3B3B3"/>
<path fill-rule="evenodd" clip-rule="evenodd" d="M69.7687 15.9634L45.0205 26.5697V36.5059L68.9154 25.8835L69.7687 15.9634Z" fill="#E6E6E6"/>
<path fill-rule="evenodd" clip-rule="evenodd" d="M45.0205 62.4617L44.9437 62.4732L33.862 59.4971L33.138 51.5845H23.1646L24.5563 67.1729L44.9415 72.8172L45.0205 72.7986V62.4617Z" fill="#E6E6E6"/>
<path fill-rule="evenodd" clip-rule="evenodd" d="M45.0205 36.5059V46.4259H57.1532L56.0505 59.3957L45.0205 62.4701V72.8062L65.338 67.1619L68.0135 36.5059H45.0205Z" fill="white"/>
<path fill-rule="evenodd" clip-rule="evenodd" d="M45.0206 36.5059H21.8052L22.6752 46.4259H45.0206V36.5059Z" fill="#E6E6E6"/>
<path fill-rule="evenodd" clip-rule="evenodd" d="M45.0204 25.8835V15.9634H44.9196H20.0413L20.9216 25.8835H45.0204Z" fill="#E6E6E6"/>
<path fill-rule="evenodd" clip-rule="evenodd" d="M45.0205 15.9634V25.7591V25.8835H68.9154L69.7687 15.9634H45.0205Z" fill="white"/>
</svg>
