<svg width="90" height="90" viewBox="0 0 90 90" fill="none" xmlns="http://www.w3.org/2000/svg">
<path d="M70.1559 25.312L72.0981 26.7182C75.4758 29.4427 77.418 32.5187 77.8402 36.0342C81.4713 35.3311 86.1156 35.8584 88.1423 37.2646L90 38.4072L89.6622 39.1103C89.0711 40.4286 88.9022 40.7801 88.8178 40.9559C85.5245 47.5474 79.0224 47.6353 75.9825 47.5474C68.2981 66.7947 51.9162 77.429 29.7921 77.429C19.5745 77.429 11.8058 74.1772 6.57031 67.7615C-0.354013 59.3243 -0.354013 48.3384 0.237088 44.8229L0.405974 44.1198H61.4583C64.6671 44.1198 67.1159 43.241 68.2981 42.5379C67.0315 40.6043 66.6093 38.4072 66.5248 37.1767C66.2715 33.6613 67.1159 29.97 68.8048 27.3334L70.1559 25.312ZM16.2813 33.5734V42.3621H6.99253V33.5734H16.2813ZM27.2588 33.5734V42.3621H17.9701V33.5734H27.2588ZM38.2364 33.5734V42.3621H28.9477V33.5734H38.2364ZM49.214 33.5734V42.3621H39.9253V33.5734H49.214ZM60.1916 33.5734V42.3621H50.9029V33.5734H60.1916ZM49.214 23.0269V31.8156H39.9253V23.0269H49.214ZM38.2364 23.0269V31.8156H28.9477V23.0269H38.2364ZM27.2588 23.0269V31.8156H17.9701V23.0269H27.2588ZM49.214 12.4805V21.2692H39.9253V12.4805H49.214Z" fill="#050505"/>
</svg>
