<svg width="90" height="90" viewBox="0 0 90 90" fill="none" xmlns="http://www.w3.org/2000/svg">
<path fill-rule="evenodd" clip-rule="evenodd" d="M7.84419 38.5517C7.67333 38.5517 7.63114 38.4659 7.71622 38.3386L8.6113 37.1876C8.69567 37.0596 8.90942 36.9745 9.07958 36.9745H24.2931C24.464 36.9745 24.5061 37.1025 24.4211 37.2305L23.6968 38.3386C23.6118 38.4659 23.3987 38.5938 23.2707 38.5938L7.84419 38.5517ZM1.40919 42.4716C1.23903 42.4716 1.19614 42.3872 1.28122 42.2585L2.1763 41.1082C2.26137 40.9802 2.47442 40.8952 2.64528 40.8952H22.0768C22.247 40.8952 22.3328 41.0231 22.2899 41.1511L21.9489 42.1735C21.9067 42.3443 21.7358 42.4294 21.5657 42.4294L1.40919 42.4716ZM11.7212 46.3922C11.5511 46.3922 11.5089 46.2642 11.594 46.1363L12.1902 45.071C12.276 44.9431 12.4461 44.8158 12.617 44.8158H21.1389C21.3097 44.8158 21.3948 44.9431 21.3948 45.1139L21.3104 46.1363C21.3104 46.3071 21.1396 46.4351 21.0116 46.4351L11.7212 46.3922ZM55.9548 37.7845C53.2696 38.4666 51.4372 38.9777 48.7956 39.6591C48.1558 39.8299 48.1136 39.8721 47.5595 39.233C46.9204 38.5088 46.4514 38.0398 45.557 37.6137C42.8718 36.2932 40.2723 36.6764 37.8437 38.2535C34.9461 40.1281 33.4548 42.8977 33.497 46.3493C33.5392 49.7588 35.8834 52.5713 39.25 53.0402C42.1475 53.4235 44.5768 52.4004 46.4943 50.2277C46.8775 49.7588 47.2185 49.2476 47.6446 48.6506H39.4201C38.5257 48.6506 38.3127 48.0966 38.6108 47.3724C39.1649 46.0512 40.1872 43.8356 40.7835 42.7275C40.9122 42.4716 41.2103 42.0455 41.8494 42.0455H57.3604C57.276 43.1965 57.276 44.3468 57.1051 45.4978C56.6361 48.5656 55.4858 51.3781 53.6106 53.8495C50.5422 57.8981 46.5372 60.4118 41.4655 61.0938C37.2897 61.6479 33.4119 60.8379 30.0032 58.2813C26.8497 55.8949 25.0602 52.7414 24.5912 48.8215C24.0372 44.1767 25.4005 40.0001 28.213 36.3354C31.2386 32.3726 35.2443 29.8582 40.145 28.9631C44.1507 28.2389 47.9856 28.7079 51.4372 31.0514C53.6957 32.5427 55.315 34.5881 56.3802 37.0596C56.6361 37.4435 56.466 37.6566 55.9541 37.7838L55.9548 37.7845Z" fill="black"/>
<path d="M70.0597 61.3498C66.1819 61.264 62.6445 60.1566 59.6619 57.5993C57.1475 55.4267 55.5711 52.6564 55.0599 49.3749C54.2928 44.5599 55.6133 40.2982 58.5115 36.5063C61.6222 32.4148 65.3719 30.2843 70.4436 29.3892C74.7896 28.6228 78.8811 29.0489 82.5879 31.5626C85.9545 33.8639 88.0421 36.9746 88.5962 41.0653C89.3204 46.8183 87.6589 51.506 83.6954 55.5117C80.8829 58.3664 77.4312 60.1566 73.4684 60.9659C72.3181 61.1789 71.1671 61.2218 70.0597 61.3498ZM80.2015 44.1338C80.1594 43.5797 80.1594 43.1536 80.0736 42.7275C79.3072 38.5088 75.4287 36.1224 71.3808 37.0603C67.4173 37.9547 64.8608 40.4691 63.9235 44.4748C63.1564 47.7985 64.7757 51.165 67.8434 52.5284C70.1876 53.5514 72.5311 53.4235 74.7896 52.2731C78.1561 50.5259 79.9885 47.7985 80.2015 44.1338V44.1338Z" fill="black"/>
</svg>
