<svg width="90" height="90" viewBox="0 0 90 90" fill="none" xmlns="http://www.w3.org/2000/svg">
<g clip-path="url(#clip0_276_1944)">
<path d="M17.8237 55.9298L72.7465 37.595C71.6492 30.7314 70.867 26.1463 69.961 22.6469C68.9846 18.8832 68.2109 17.8762 67.907 17.5274C66.848 16.3156 65.5295 15.358 64.0495 14.7257C63.6218 14.5428 62.4232 14.1181 58.5459 14.3516C54.4436 14.5991 49.0582 15.4374 40.53 16.7876C32.0046 18.1378 26.622 19.007 22.6463 20.0365C18.8844 21.0126 17.8743 21.789 17.5254 22.0928C16.3155 23.1533 15.3589 24.4697 14.7258 25.9493C14.5429 26.3769 14.118 27.5752 14.3516 31.4543C14.5992 35.5556 15.4377 40.9424 16.7882 49.4684C17.1653 51.8594 17.5057 53.9973 17.8237 55.9298Z" fill="#050505"/>
<path d="M2.68057 51.7018C0.0694853 35.2066 -1.23887 26.9591 1.59168 20.3374C3.06722 16.8839 5.30224 13.8072 8.13065 11.336C13.5526 6.60176 21.7995 5.29655 38.2932 2.68332C54.7926 0.0672785 63.0395 -1.23793 69.6657 1.5919C73.1182 3.06753 76.1937 5.30197 78.6638 8.12919C83.402 13.5526 84.7075 21.8001 87.3186 38.2981C89.9325 54.7932 91.2381 63.0436 88.4075 69.6624C86.933 73.1158 84.6989 76.1925 81.8714 78.6639C76.4494 83.4009 68.1997 84.7061 51.7032 87.3193C35.2094 89.9325 26.9597 91.2378 20.3392 88.4079C16.8867 86.9322 13.8112 84.6978 11.3411 81.8706C6.60283 76.4473 5.29729 68.1997 2.68339 51.7018H2.68057ZM31.7767 80.9958C36.1942 80.7286 41.8835 79.8369 50.3048 78.5035C58.7289 77.1702 64.4097 76.2588 68.6978 75.1477C72.8479 74.0703 74.7612 73.0211 75.9964 71.9409C77.8137 70.3521 79.2495 68.3744 80.1972 66.1547C80.8444 64.647 81.2524 62.5035 80.9935 58.2222C80.7262 53.8059 79.8343 48.1153 78.5006 39.6933C77.1669 31.2713 76.2581 25.5863 75.1467 21.3022C74.069 17.1503 73.0167 15.2375 71.9391 14.0026C70.3511 12.1851 68.3738 10.7487 66.1542 9.80008C64.6461 9.1531 62.502 8.74522 58.2196 9.00402C53.8022 9.27125 48.1157 10.163 39.6916 11.4963C31.2703 12.8324 25.5867 13.741 21.3015 14.8521C17.1485 15.9295 15.238 16.9815 14.0028 18.0589C12.1846 19.6474 10.7478 21.6252 9.79916 23.8451C9.15483 25.3529 8.74685 27.4963 9.00571 31.7776C9.27301 36.1968 10.1621 41.8846 11.4986 50.3065C12.8323 58.7285 13.7411 64.4135 14.8525 68.6976C15.9302 72.8495 16.9797 74.7623 18.0601 75.9972C19.6482 77.8147 21.6254 79.2511 23.845 80.1997C25.3531 80.8467 27.4943 81.2546 31.7796 80.9958H31.7767Z" fill="#050505"/>
</g>
<defs>
<clipPath id="clip0_276_1944">
<rect width="90" height="90" fill="white"/>
</clipPath>
</defs>
</svg>
