<svg width="90" height="90" viewBox="0 0 90 90" fill="none" xmlns="http://www.w3.org/2000/svg">
<path fill-rule="evenodd" clip-rule="evenodd" d="M12.4954 81.0033L5.27344 0H84.6309L77.4012 80.9906L44.9036 90L12.4954 81.0033Z" fill="#050505"/>
<path fill-rule="evenodd" clip-rule="evenodd" d="M44.9521 83.1137L71.2118 75.8335L77.39 6.62329H44.9521V83.1137Z" fill="#050505"/>
<path d="M31.8059 36.6662H44.9521V46.6008H22.7201L20.0405 16.5581H44.9521V26.4929H30.8979L31.8059 36.6662Z" fill="#EBEBEB"/>
<path d="M44.9086 62.4794L44.9521 62.4678V72.8041L44.9064 72.8167L24.5558 67.1673L23.164 51.5684H33.1369L33.8442 59.4918L44.9086 62.4794Z" fill="#EBEBEB"/>
<path d="M44.9177 16.5581H69.8043L68.9148 26.4929H44.9177V16.5581Z" fill="white"/>
<path d="M44.9177 46.6008V36.6662H68.0108L67.7684 39.334L65.2844 67.1673L44.9177 72.8119V62.4761L55.9981 59.4854L57.1512 46.6008H44.9177Z" fill="white"/>
</svg>
