<svg width="90" height="90" viewBox="0 0 90 90" fill="none" xmlns="http://www.w3.org/2000/svg">
<g clip-path="url(#clip0_276_1923)">
<path fill-rule="evenodd" clip-rule="evenodd" d="M0 0H90V90H0V0V0Z" fill="#050505"/>
<path fill-rule="evenodd" clip-rule="evenodd" d="M23.6642 75.2107L30.5516 71.0426C31.8803 73.3984 33.0891 75.3917 35.9883 75.3917C38.7675 75.3917 40.5196 74.3046 40.5196 70.076V41.3188H48.9773V70.1956C48.9773 78.9556 43.8425 82.9428 36.3509 82.9428C29.5851 82.9428 25.6576 79.4387 23.6641 75.21" fill="white"/>
<path fill-rule="evenodd" clip-rule="evenodd" d="M53.5713 74.3043L60.4579 70.3171C62.2707 73.2776 64.6269 75.4523 68.7951 75.4523C72.2996 75.4523 74.5343 73.7002 74.5343 71.2836C74.5343 68.3838 72.2387 67.3566 68.3721 65.6656L66.2583 64.7588C60.1561 62.1615 56.1083 58.8992 56.1083 52.0119C56.1083 45.6685 60.9413 40.8352 68.4933 40.8352C73.8701 40.8352 77.7366 42.7082 80.5153 47.6018L73.9301 51.8305C72.4801 49.2329 70.9099 48.2061 68.4934 48.2061C66.0164 48.2061 64.4456 49.7768 64.4456 51.8305C64.4456 54.3679 66.0164 55.3952 69.6409 56.9661L71.7551 57.8722C78.9444 60.9535 82.9923 64.0946 82.9923 71.1628C82.9923 78.7754 77.0114 82.9435 68.9766 82.9435C61.1229 82.9435 56.048 79.1981 53.5714 74.3043" fill="white"/>
</g>
<defs>
<clipPath id="clip0_276_1923">
<rect width="90" height="90" fill="white"/>
</clipPath>
</defs>
</svg>
