<svg width="90" height="90" viewBox="0 0 90 90" fill="none" xmlns="http://www.w3.org/2000/svg">
<path d="M38.1935 19.0997L23.4167 11.6431L7.18994 19.7375L22.3732 27.3593L38.1935 19.0997ZM44.9724 22.5218L60.4685 30.3469L44.393 38.4167L29.1879 30.7842L44.9724 22.5218ZM65.6703 11.7528L81.5925 19.7367L67.3514 26.8861L51.825 19.0526L65.6703 11.7528ZM58.8176 8.31378L44.483 1.12573L30.3052 8.20339L45.0764 15.6495L58.8176 8.31378ZM47.6119 70.0348V89.5929L64.9756 80.9276L64.9594 61.361L47.6119 70.0348ZM64.951 54.5309L64.932 35.1703L47.6119 43.7808V63.1498L64.951 54.5309ZM85.7951 50.9049V70.5403L70.9831 77.9288L70.9718 58.384L85.7951 50.9049ZM85.7951 44.0389V24.7964L70.9556 32.1736L70.9669 51.5728L85.7951 44.0389Z" fill="#848484"/>
<path d="M41.4815 43.7807L29.7892 37.8977V63.3086C29.7892 63.3086 15.482 32.8753 14.1609 30.1394C13.9907 29.785 13.2876 29.4004 13.109 29.3041C10.5299 27.9583 3.01562 24.1544 3.01562 24.1544V69.0637L13.4113 74.6367V51.1523C13.4113 51.1523 27.5645 78.3464 27.7101 78.6459C27.8577 78.9426 29.2703 81.8043 30.7919 82.8126C32.8098 84.1528 41.4759 89.3629 41.4759 89.3629L41.4815 43.7807Z" fill="black"/>
</svg>
