<svg width="90" height="90" viewBox="0 0 90 90" fill="none" xmlns="http://www.w3.org/2000/svg">
<path d="M11.426 79.1782C9.85242 79.1782 8.25281 78.5278 7.24875 77.2523V84.1401H4.10156V67.1386H6.94852L7.06031 69.0025C8.03695 67.5654 9.77227 66.806 11.4267 66.8081C14.5985 66.8081 16.9378 69.4652 16.9378 72.9921C16.9378 76.5182 14.5971 79.1803 11.4253 79.1789L11.426 79.1782ZM10.4508 69.1446C8.61352 69.1446 7.11375 70.5818 7.11375 72.9956C7.11375 75.4094 8.60438 76.8466 10.4494 76.8466C12.2937 76.8466 13.7815 75.4094 13.7815 72.9956C13.7815 70.5818 12.2937 69.1446 10.4508 69.1446V69.1446ZM28.7988 78.8554L28.6898 76.9851C27.7139 78.4216 25.9779 79.181 24.3248 79.181C21.1516 79.181 18.8145 76.5225 18.8145 72.997C18.8145 69.4722 21.1467 66.813 24.3248 66.8151C25.9772 66.8151 27.7139 67.5801 28.6898 69.011L28.7988 67.1407H31.6465V78.8568L28.7988 78.8554ZM25.3015 69.1453C23.4642 69.1453 21.9659 70.5825 21.9659 72.9963C21.9659 75.4101 23.4565 76.8473 25.3015 76.8473C27.1458 76.8473 28.6364 75.4101 28.6364 72.9977C28.6364 70.586 27.1458 69.1544 25.3015 69.1453V69.1453ZM42.6532 78.8582V72.3698C42.6532 70.0917 41.8657 69.3323 40.4292 69.3323C38.9386 69.3323 37.3109 70.6872 37.3095 72.3143V78.8505H34.1651V67.1407H37.0479L37.1822 69.3112C37.9697 67.8192 39.7324 66.8165 41.5219 66.8165C44.6395 66.8165 45.8074 68.9871 45.8074 71.8889V78.8582H42.6532ZM57.3323 78.8597L57.2234 76.9879C56.2481 78.4251 54.5128 79.1838 52.8577 79.1838C49.6852 79.1838 47.3473 76.526 47.3473 73.0005C47.3473 69.475 49.6802 66.8179 52.8577 66.8179C54.4299 66.8179 56.0309 67.4697 57.0342 68.7445V62.5886H60.1793V78.8597H57.3323ZM53.8364 69.1551C51.9914 69.1551 50.4994 70.5923 50.4994 73.0061C50.4994 75.42 51.99 76.8557 53.8343 76.8579C55.6793 76.8579 57.1699 75.42 57.1699 73.0061C57.1699 70.5923 55.6793 69.1551 53.8364 69.1551ZM72.0002 78.8611L71.892 76.9907C70.9153 78.4279 69.1793 79.1873 67.5263 79.1859C64.3531 79.1859 62.0159 76.5281 62.0159 73.0033C62.0159 69.4779 64.3488 66.8193 67.5263 66.8207C69.1793 66.8207 70.9153 67.5864 71.892 69.0173L72.0009 67.147H74.8556V78.8611H72.0002ZM68.5029 69.1551C66.6586 69.1551 65.168 70.5923 65.168 73.0061C65.168 75.42 66.6586 76.8579 68.5029 76.8579C70.3472 76.8579 71.8385 75.42 71.8385 73.0061C71.8385 70.5923 70.3479 69.1551 68.5029 69.1551ZM81.8187 79.2422C80.1637 79.229 78.5428 78.7699 77.1267 77.9132L77.6414 75.7371C78.5906 76.3066 80.0278 77.04 81.7631 77.04C83.0105 77.04 83.8788 76.6603 83.8788 75.6829C83.8788 74.8434 82.9845 74.5446 81.3834 74.1649C78.5105 73.5405 77.479 72.0225 77.4804 70.368C77.4804 68.5307 78.9176 66.7891 82.0908 66.7891C84.0166 66.7891 85.6971 67.6307 86.0705 67.8466L85.5607 69.9208C84.5364 69.3033 83.3675 68.9662 82.1716 68.9435C80.8969 68.9435 80.2725 69.3773 80.2725 70.0825C80.2725 70.8679 81.0867 71.2216 82.3341 71.5197C85.4243 72.1708 86.6723 73.608 86.6723 75.1816C86.6723 77.6981 84.8273 79.2422 81.8187 79.2422V79.2422ZM37.9282 11.29H43.5159V22.8937H37.9282V11.29ZM37.9282 35.1246H43.5159V46.7275H37.9282V35.1246Z" fill="black"/>
<path d="M37.9277 26.2821H43.5155V31.7566H37.9277V26.2821Z" fill="#C7C7C7"/>
<path d="M28.9512 20.8308H34.5389V59.4H28.9512V20.8308ZM46.7191 44.6977H52.3076V56.3007H46.7191V44.6977ZM46.7191 20.8449H52.3076V32.4478H46.7191V20.8449Z" fill="black"/>
<path d="M46.7192 35.8347H52.3077V41.3085H46.7192V35.8347Z" fill="#848484"/>
<path d="M55.5083 8.27014H61.0967V46.8387H55.5083V8.27014Z" fill="black"/>
</svg>
