<svg width="90" height="90" viewBox="0 0 90 90" fill="none" xmlns="http://www.w3.org/2000/svg">
<g clip-path="url(#clip0_251_1648)">
<path d="M44.568 0.351562C21.7754 0.351564 23.1988 10.2358 23.1988 10.2358L23.2242 20.4758H44.9746V23.5503H14.585C14.585 23.5503 0 21.8963 0 44.8942C-1.62562e-06 67.8921 12.7301 67.0766 12.7301 67.0766H20.3275V56.4046C20.3275 56.4046 19.918 43.6745 32.8543 43.6745H54.4269C54.4269 43.6745 66.5471 43.8705 66.5471 31.9608V12.2686C66.5471 12.2686 68.3873 0.351562 44.568 0.351562ZM32.5748 7.2375C34.7388 7.2375 36.4879 8.98654 36.4879 11.1505C36.4879 13.3146 34.7388 15.0636 32.5748 15.0636C30.4108 15.0636 28.6618 13.3146 28.6618 11.1505C28.6618 8.98654 30.4108 7.2375 32.5748 7.2375Z" fill="#050505"/>
<path d="M45.2154 89.6673C68.008 89.6673 66.5847 79.7831 66.5847 79.7831L66.5593 69.5431H44.8089V66.4686H75.1985C75.1985 66.4686 89.7835 68.1226 89.7835 45.1247C89.7835 22.1267 77.0534 22.9423 77.0534 22.9423H69.456V33.6142C69.456 33.6142 69.8655 46.3443 56.9292 46.3443H35.3566C35.3566 46.3443 23.2363 46.1484 23.2363 58.0581V77.7503C23.2363 77.7503 21.3961 89.6673 45.2154 89.6673ZM57.2087 82.7814C55.0447 82.7814 53.2956 81.0323 53.2956 78.8683C53.2956 76.7043 55.0447 74.9553 57.2087 74.9553C59.3727 74.9553 61.1217 76.7043 61.1217 78.8683C61.1217 81.0323 59.3727 82.7814 57.2087 82.7814Z" fill="#797979"/>
</g>
<defs>
<clipPath id="clip0_251_1648">
<rect width="90" height="90" fill="white"/>
</clipPath>
</defs>
</svg>
