<svg width="90" height="90" viewBox="0 0 90 90" fill="none" xmlns="http://www.w3.org/2000/svg">
<g style="mix-blend-mode:luminosity">
<path d="M70.3828 26.9297L63.9141 33.3984C74.5313 44.0156 74.5313 61.1016 63.9141 71.5781C53.2969 82.1953 36.2109 82.1953 25.7344 71.5781C15.1172 60.9609 15.1172 43.875 25.7344 33.3984L42.6094 16.5234L45 14.1328V1.40625L19.5469 26.8594C5.41406 40.9922 5.41406 63.8437 19.5469 78.0469C33.6797 92.25 56.5312 92.1797 70.4531 78.0469C84.5859 63.8437 84.5859 41.1328 70.3828 26.9297V26.9297Z" fill="black"/>
<path d="M62.4159 20.7377C62.4641 18.1364 60.3944 15.9886 57.7931 15.9404C55.1919 15.8923 53.0441 17.962 52.9959 20.5632C52.9477 23.1645 55.0174 25.3122 57.6187 25.3604C60.2199 25.4086 62.3677 23.3389 62.4159 20.7377Z" fill="black"/>
</g>
</svg>
