<svg width="90" height="90" viewBox="0 0 90 90" fill="none" xmlns="http://www.w3.org/2000/svg">
<path d="M73.9981 30.8755C73.0644 30.5541 72.097 30.2501 71.1009 29.9625C71.2646 29.2943 71.4149 28.6348 71.5485 27.9865C73.7416 17.3408 72.3076 8.76454 67.4112 5.94088C62.7161 3.23336 55.0376 6.05638 47.2827 12.8052C46.5369 13.4542 45.7891 14.1413 45.0417 14.8614C44.5436 14.385 44.0463 13.9245 43.5504 13.4842C35.423 6.26784 27.2766 3.22679 22.3849 6.05862C17.6943 8.77399 16.3052 16.8365 18.2793 26.9255C18.47 27.9 18.6928 28.8951 18.9448 29.9069C17.7918 30.2342 16.6788 30.5831 15.6138 30.9543C6.08531 34.2764 0 39.4828 0 44.8833C0 50.4609 6.53259 56.0554 16.4572 59.4476C17.2404 59.7153 18.0531 59.9684 18.8906 60.2087C18.6188 61.303 18.3823 62.3754 18.1838 63.4213C16.3015 73.3352 17.7715 81.2072 22.4496 83.9055C27.2817 86.692 35.3913 83.8278 43.288 76.9251C43.9121 76.3795 44.5385 75.8008 45.166 75.1943C45.9793 75.9775 46.7913 76.7188 47.5991 77.414C55.2479 83.9961 62.8024 86.654 67.4762 83.9482C72.3035 81.1537 73.8723 72.6973 71.8355 62.4087C71.68 61.6229 71.499 60.8202 71.2957 60.0032C71.8652 59.8348 72.4243 59.661 72.9694 59.4803C83.287 56.0618 90 50.5354 90 44.8833C90 39.4633 83.7184 34.2217 73.9981 30.8755ZM71.7602 55.8308C71.2681 55.9937 70.7632 56.1512 70.2486 56.3039C69.1096 52.6979 67.5723 48.8636 65.6911 44.902C67.4863 41.0348 68.9641 37.2495 70.0713 33.667C70.9919 33.9334 71.8855 34.2144 72.7466 34.5109C81.075 37.378 86.1552 41.617 86.1552 44.8833C86.1552 48.3625 80.6687 52.879 71.7602 55.8308ZM68.0638 63.1554C68.9645 67.7049 69.0931 71.8181 68.4965 75.0337C67.9605 77.923 66.8825 79.8494 65.5497 80.6209C62.7133 82.2626 56.6479 80.1286 50.1065 74.4996C49.3566 73.8543 48.6013 73.1653 47.8435 72.436C50.3795 69.6625 52.914 66.4382 55.3876 62.8573C59.7384 62.4712 63.849 61.84 67.5767 60.9783C67.7602 61.7189 67.9233 62.4452 68.0638 63.1554ZM30.683 80.3372C27.9119 81.3158 25.7049 81.3439 24.3707 80.5746C21.5318 78.9372 20.3517 72.6167 21.9615 64.1384C22.1459 63.1674 22.3654 62.17 22.6183 61.1505C26.3051 61.9658 30.3855 62.5524 34.7468 62.906C37.2371 66.41 39.8448 69.6308 42.4727 72.4509C41.8986 73.0052 41.3266 73.5329 40.7579 74.0302C37.2661 77.0824 33.7669 79.248 30.683 80.3372ZM17.7007 55.8095C13.3122 54.3095 9.68802 52.3601 7.20382 50.2328C4.97161 48.3211 3.84461 46.4233 3.84461 44.8833C3.84461 41.6061 8.73051 37.426 16.8793 34.5849C17.8681 34.2402 18.9031 33.9153 19.9773 33.6101C21.1035 37.2735 22.5808 41.1037 24.3637 44.9768C22.5578 48.9075 21.0594 52.7987 19.9222 56.5051C19.1564 56.2849 18.4145 56.0533 17.7007 55.8095ZM22.0525 26.1871C20.3611 17.5431 21.4844 11.0224 24.3111 9.38611C27.3221 7.64299 33.9801 10.1283 40.9974 16.3592C41.446 16.7575 41.8963 17.1743 42.3479 17.6056C39.733 20.4134 37.1491 23.61 34.681 27.0934C30.4482 27.4857 26.3964 28.1159 22.6712 28.9598C22.437 28.0177 22.2295 27.0921 22.0525 26.1871ZM60.8744 35.7733C59.9839 34.235 59.0696 32.7332 58.1376 31.2723C61.0091 31.6353 63.7604 32.1172 66.3441 32.7069C65.5684 35.1929 64.6016 37.7921 63.4635 40.4567C62.6472 38.9067 61.7837 37.344 60.8744 35.7733ZM45.0429 20.3533C46.8163 22.2746 48.5923 24.4196 50.3391 26.747C48.5788 26.6639 46.7968 26.6206 45 26.6206C43.2202 26.6206 41.4513 26.6629 39.7019 26.7446C41.4505 24.4389 43.2418 22.2967 45.0429 20.3533ZM29.11 35.7998C28.2205 37.3424 27.373 38.8967 26.5695 40.4538C25.4498 37.7985 24.492 35.1874 23.7096 32.6662C26.2774 32.0916 29.0157 31.6217 31.869 31.2656C30.9238 32.7399 30.002 34.2528 29.11 35.7995V35.7998ZM31.9512 58.7752C29.0032 58.4463 26.2237 58.0007 23.6566 57.4419C24.4515 54.8757 25.4304 52.2089 26.5738 49.4964C27.3794 51.0524 28.2302 52.6073 29.1253 54.1532H29.1254C30.0371 55.7281 30.9816 57.2708 31.9512 58.7752ZM45.1493 69.6843C43.327 67.7182 41.5094 65.5433 39.7343 63.2039C41.4575 63.2715 43.2144 63.3061 45 63.3061C46.8344 63.3061 48.6479 63.2648 50.4328 63.1854C48.6802 65.5669 46.9107 67.7451 45.1493 69.6843ZM63.5002 49.3581C64.7032 52.0999 65.7172 54.7528 66.5224 57.2753C63.9129 57.8706 61.0955 58.3501 58.127 58.7064C59.0613 57.2258 59.9836 55.6981 60.8898 54.1267C61.8066 52.5369 62.6771 50.9447 63.5002 49.3581ZM57.5594 52.206C56.1526 54.6453 54.7082 56.974 53.2419 59.1721C50.5712 59.363 47.8121 59.4614 45 59.4614C42.1992 59.4614 39.4749 59.3744 36.8515 59.2041C35.3261 56.9772 33.8503 54.6416 32.4524 52.227H32.4527C31.0585 49.8188 29.7753 47.3904 28.6126 44.9756C29.775 42.5551 31.0549 40.1239 32.4411 37.7202L32.4407 37.7206C33.8306 35.3104 35.2934 32.9863 36.8047 30.7733C39.4813 30.571 42.226 30.4654 44.9998 30.4654H45C47.7863 30.4654 50.5345 30.5718 53.2103 30.7759C54.6986 32.9727 56.1514 35.2893 57.5468 37.6998C58.958 40.1374 60.2543 42.5524 61.4266 44.9209C60.2578 47.3302 58.9644 49.7695 57.5594 52.206ZM65.4907 9.27173C68.5045 11.0097 69.6765 18.0191 67.783 27.2105C67.6622 27.797 67.5262 28.3943 67.3785 28.9997C63.6446 28.1382 59.5899 27.4971 55.3448 27.0988C52.8718 23.5772 50.3091 20.3756 47.7368 17.6038C48.4284 16.9385 49.119 16.3041 49.8068 15.7055C56.4512 9.9231 62.6613 7.64011 65.4907 9.27173ZM45 36.8466C49.4385 36.8466 53.0367 40.4447 53.0367 44.8833C53.0367 49.3217 49.4385 52.92 45 52.92C40.5615 52.92 36.9633 49.3217 36.9633 44.8833C36.9633 40.4447 40.5615 36.8466 45 36.8466Z" fill="#050505"/>
</svg>
