<svg width="90" height="90" viewBox="0 0 90 90" fill="none" xmlns="http://www.w3.org/2000/svg">
<path d="M45 17.9297C33 17.9297 25.5 23.9297 22.5 35.9297C27 29.9297 32.25 27.6797 38.25 29.1797C41.6733 30.0355 44.1202 32.519 46.8285 35.2682C51.2405 39.7465 56.3468 44.9297 67.5 44.9297C79.5 44.9297 87 38.9297 90 26.9297C85.5 32.9297 80.25 35.1797 74.25 33.6797C70.8267 32.8239 68.3798 30.3404 65.6715 27.5912C61.2595 23.1129 56.1532 17.9297 45 17.9297ZM22.5 44.9297C10.5 44.9297 3 50.9297 0 62.9297C4.5 56.9297 9.75 54.6797 15.75 56.1797C19.1733 57.0355 21.6202 59.519 24.3285 62.2682C28.7405 66.7465 33.8468 71.9297 45 71.9297C57 71.9297 64.5 65.9297 67.5 53.9297C63 59.9297 57.75 62.1797 51.75 60.6797C48.3267 59.8239 45.8798 57.3404 43.1715 54.5912C38.7595 50.1129 33.6532 44.9297 22.5 44.9297Z" fill="#050505"/>
</svg>
