<svg width="90" height="90" viewBox="0 0 90 90" fill="none" xmlns="http://www.w3.org/2000/svg">
<g clip-path="url(#clip0_276_1936)">
<path d="M7.03125 0H82.9688C86.852 0 90 3.148 90 7.03125V82.9688C90 86.852 86.852 90 82.9688 90H7.03125C3.148 90 0 86.852 0 82.9688V7.03125C0 3.148 3.148 0 7.03125 0Z" fill="#050505"/>
<path d="M52.9165 70.4795V80.1896C54.4957 80.9989 56.3636 81.6057 58.5197 82.0104C60.6758 82.415 62.9483 82.6172 65.3375 82.6172C67.6656 82.6172 69.8776 82.3946 71.9729 81.9496C74.0682 81.5045 75.9059 80.7711 77.4847 79.7498C79.0639 78.7282 80.3141 77.393 81.2355 75.7441C82.1566 74.0957 82.6172 72.0577 82.6172 69.6301C82.6172 67.8702 82.3539 66.3275 81.8276 65.0025C81.3013 63.6775 80.5419 62.499 79.5498 61.4675C78.558 60.4357 77.3684 59.5104 75.9818 58.6909C74.5949 57.8718 73.0308 57.098 71.2895 56.3699C70.014 55.8436 68.8704 55.3331 67.8579 54.8374C66.8457 54.3417 65.9851 53.8362 65.2767 53.3201C64.568 52.8043 64.0213 52.258 63.6367 51.6814C63.2521 51.1049 63.0598 50.4527 63.0598 49.7243C63.0598 49.0567 63.2317 48.4552 63.5759 47.919C63.92 47.3829 64.4063 46.9227 65.0338 46.5384C65.6613 46.1538 66.4305 45.8557 67.3418 45.643C68.2527 45.4307 69.2652 45.3245 70.3786 45.3245C71.1886 45.3245 72.0439 45.3853 72.9446 45.5066C73.8457 45.6279 74.7517 45.8149 75.6629 46.068C76.5738 46.3208 77.4594 46.6393 78.32 47.0239C79.1803 47.4082 79.9752 47.8533 80.704 48.3588V39.2861C79.226 38.7197 77.6113 38.2999 75.8602 38.0268C74.109 37.7536 72.0995 37.6172 69.8319 37.6172C67.5239 37.6172 65.3375 37.865 63.2725 38.3607C61.2074 38.8561 59.3902 39.6299 57.8211 40.6818C56.2521 41.734 55.0121 43.0741 54.1009 44.7026C53.19 46.331 52.7344 48.278 52.7344 50.5438C52.7344 53.4364 53.5693 55.9044 55.24 57.9477C56.9102 59.9906 59.4457 61.7203 62.8471 63.1364C64.1834 63.6827 65.4286 64.2185 66.5824 64.7448C67.7366 65.2707 68.7336 65.8167 69.5739 66.3831C70.4141 66.9495 71.0772 67.5664 71.563 68.2341C72.0489 68.9017 72.2918 69.6604 72.2918 70.5101C72.2918 71.1369 72.1399 71.7187 71.8362 72.2549C71.5328 72.7907 71.0719 73.2561 70.4545 73.6506C69.8372 74.045 69.0676 74.3534 68.1465 74.5759C67.2254 74.7984 66.1472 74.9099 64.9122 74.9099C62.8066 74.9099 60.7215 74.5407 58.6564 73.8021C56.591 73.0638 54.6778 71.9564 52.9165 70.4795ZM36.732 46.3155H49.2188V38.3203H14.4141V46.3155H26.8399V81.9141H36.732V46.3155Z" fill="white"/>
</g>
<defs>
<clipPath id="clip0_276_1936">
<rect width="90" height="90" fill="white"/>
</clipPath>
</defs>
</svg>
