<svg width="26" height="25" viewBox="0 0 26 25" fill="none" xmlns="http://www.w3.org/2000/svg">
<path d="M21.6636 4.55811C20.0701 3.82699 18.3614 3.28832 16.5749 2.97981C16.5424 2.97386 16.5099 2.98874 16.4931 3.0185C16.2733 3.40935 16.0299 3.91924 15.8595 4.32001C13.9379 4.03234 12.0262 4.03234 10.1441 4.32001C9.97359 3.91033 9.72134 3.40935 9.5006 3.0185C9.48384 2.98973 9.45134 2.97485 9.4188 2.97981C7.63324 3.28734 5.92454 3.826 4.33014 4.55811C4.31634 4.56406 4.30451 4.57399 4.29666 4.58688C1.05562 9.42892 0.16776 14.152 0.603313 18.8164C0.605283 18.8392 0.618094 18.8611 0.635831 18.8749C2.77418 20.4453 4.84553 21.3986 6.87842 22.0305C6.91095 22.0405 6.94542 22.0286 6.96613 22.0018C7.44701 21.3451 7.87567 20.6527 8.2432 19.9245C8.26489 19.8818 8.24419 19.8312 8.19986 19.8144C7.51993 19.5565 6.8725 19.242 6.24972 18.8849C6.20046 18.8561 6.19651 18.7856 6.24183 18.7519C6.37289 18.6537 6.50398 18.5515 6.62912 18.4484C6.65176 18.4295 6.68331 18.4255 6.70993 18.4374C10.8013 20.3054 15.2308 20.3054 19.2739 18.4374C19.3005 18.4246 19.3321 18.4285 19.3557 18.4474C19.4809 18.5505 19.6119 18.6537 19.744 18.7519C19.7893 18.7856 19.7863 18.8561 19.7371 18.8849C19.1143 19.2489 18.4669 19.5565 17.786 19.8134C17.7416 19.8303 17.7219 19.8818 17.7436 19.9245C18.119 20.6516 18.5477 21.3441 19.0197 22.0008C19.0394 22.0286 19.0749 22.0405 19.1074 22.0305C21.1501 21.3986 23.2215 20.4453 25.3598 18.8749C25.3786 18.8611 25.3904 18.8402 25.3924 18.8174C25.9136 13.4248 24.5193 8.74047 21.6961 4.58787C21.6892 4.57399 21.6774 4.56406 21.6636 4.55811ZM8.85419 15.9762C7.62239 15.9762 6.60743 14.8454 6.60743 13.4565C6.60743 12.0677 7.60271 10.9368 8.85419 10.9368C10.1155 10.9368 11.1206 12.0776 11.1009 13.4565C11.1009 14.8454 10.1056 15.9762 8.85419 15.9762ZM17.1612 15.9762C15.9294 15.9762 14.9145 14.8454 14.9145 13.4565C14.9145 12.0677 15.9097 10.9368 17.1612 10.9368C18.4225 10.9368 19.4276 12.0776 19.408 13.4565C19.408 14.8454 18.4225 15.9762 17.1612 15.9762Z" fill="#050505"/>
</svg>
