<svg width="25" height="25" viewBox="0 0 25 25" fill="none" xmlns="http://www.w3.org/2000/svg">
<path fill-rule="evenodd" clip-rule="evenodd" d="M12.5001 0.585938C5.75917 0.585938 0.292969 6.05113 0.292969 12.7931C0.292969 18.1865 3.79068 22.7623 8.64095 24.3764C9.25102 24.4894 9.475 24.1116 9.475 23.7892C9.475 23.4981 9.46368 22.5365 9.45842 21.5164C6.06239 22.2549 5.34579 20.0762 5.34579 20.0762C4.79049 18.6652 3.9904 18.29 3.9904 18.29C2.88285 17.5324 4.07389 17.5479 4.07389 17.5479C5.2997 17.634 5.94514 18.8059 5.94514 18.8059C7.0339 20.6721 8.80085 20.1326 9.49744 19.8206C9.607 19.0317 9.92336 18.4932 10.2725 18.1883C7.56109 17.8796 4.71085 16.8329 4.71085 12.1555C4.71085 10.8228 5.18771 9.73381 5.96859 8.87894C5.84185 8.57147 5.42402 7.3299 6.08685 5.64846C6.08685 5.64846 7.11193 5.32038 9.44468 6.89973C10.4184 6.62926 11.4627 6.49363 12.5001 6.48898C13.5375 6.49363 14.5826 6.62926 15.5582 6.89973C17.8881 5.32038 18.9117 5.64846 18.9117 5.64846C19.5762 7.3299 19.1582 8.57147 19.0314 8.87894C19.8141 9.73381 20.2877 10.8228 20.2877 12.1555C20.2877 16.8441 17.432 17.8764 14.7138 18.1786C15.1516 18.5574 15.5418 19.3003 15.5418 20.4392C15.5418 22.0725 15.5276 23.3871 15.5276 23.7892C15.5276 24.114 15.7474 24.4946 16.3661 24.3748C21.2138 22.7588 24.707 18.1847 24.707 12.7931C24.707 6.05113 19.2416 0.585938 12.5001 0.585938ZM4.86494 17.9753C4.83805 18.0359 4.74264 18.0541 4.65572 18.0124C4.56718 17.9726 4.51745 17.8899 4.54615 17.8291C4.57243 17.7666 4.66805 17.7493 4.75638 17.7911C4.84513 17.8309 4.89566 17.9144 4.86494 17.9753ZM5.46539 18.511C5.40717 18.565 5.29337 18.5399 5.21615 18.4546C5.1363 18.3695 5.12134 18.2557 5.18037 18.2009C5.2404 18.147 5.35078 18.1722 5.43083 18.2573C5.51067 18.3435 5.52624 18.4565 5.46539 18.511ZM5.87733 19.1965C5.80253 19.2485 5.68024 19.1998 5.60463 19.0912C5.52984 18.9827 5.52984 18.8525 5.60625 18.8003C5.68205 18.7482 5.80253 18.7951 5.87915 18.9028C5.95374 19.0132 5.95374 19.1434 5.87733 19.1965ZM6.574 19.9905C6.50709 20.0642 6.36458 20.0444 6.26027 19.9438C6.15354 19.8453 6.12382 19.7056 6.19093 19.6319C6.25865 19.5579 6.40197 19.5787 6.50709 19.6786C6.61301 19.7768 6.64535 19.9175 6.574 19.9905ZM7.47438 20.2585C7.44486 20.3541 7.30761 20.3976 7.16934 20.3569C7.03127 20.3151 6.94092 20.2031 6.96881 20.1065C6.99752 20.0102 7.13538 19.965 7.27466 20.0084C7.41252 20.0501 7.50308 20.1612 7.47438 20.2585ZM8.49904 20.3722C8.50248 20.4728 8.38524 20.5563 8.2401 20.5581C8.09415 20.5614 7.9761 20.4799 7.97448 20.3809C7.97448 20.2792 8.08909 20.1965 8.23504 20.1941C8.38018 20.1912 8.49904 20.2721 8.49904 20.3722ZM9.50567 20.3336C9.52305 20.4318 9.42218 20.5327 9.27805 20.5596C9.13635 20.5855 9.00516 20.5248 8.98717 20.4274C8.96958 20.3267 9.07227 20.2258 9.21377 20.1998C9.3581 20.1747 9.48727 20.2337 9.50567 20.3336Z" fill="#161614"/>
</svg>
