<svg width="26" height="25" viewBox="0 0 26 25" fill="none" xmlns="http://www.w3.org/2000/svg">
<path fill-rule="evenodd" clip-rule="evenodd" d="M6.58109 12.5C6.58109 8.95491 9.45491 6.08108 13 6.08108C16.5451 6.08108 19.4189 8.95491 19.4189 12.5C19.4189 16.0451 16.5451 18.9189 13 18.9189C9.45491 18.9189 6.58109 16.0451 6.58109 12.5ZM13 16.6667C10.6988 16.6667 8.83333 14.8012 8.83333 12.5C8.83333 10.1988 10.6988 8.33333 13 8.33333C15.3012 8.33333 17.1667 10.1988 17.1667 12.5C17.1667 14.8012 15.3012 16.6667 13 16.6667Z" fill="#4E60D3"/>
<path fill-rule="evenodd" clip-rule="evenodd" d="M6.58109 12.5C6.58109 8.95491 9.45491 6.08108 13 6.08108C16.5451 6.08108 19.4189 8.95491 19.4189 12.5C19.4189 16.0451 16.5451 18.9189 13 18.9189C9.45491 18.9189 6.58109 16.0451 6.58109 12.5ZM13 16.6667C10.6988 16.6667 8.83333 14.8012 8.83333 12.5C8.83333 10.1988 10.6988 8.33333 13 8.33333C15.3012 8.33333 17.1667 10.1988 17.1667 12.5C17.1667 14.8012 15.3012 16.6667 13 16.6667Z" fill="#050505"/>
<path d="M19.6725 7.32746C20.501 7.32746 21.1725 6.65592 21.1725 5.82748C21.1725 4.99905 20.501 4.32746 19.6725 4.32746C18.8441 4.32746 18.1725 4.99905 18.1725 5.82748C18.1725 6.65592 18.8441 7.32746 19.6725 7.32746Z" fill="#4E60D3"/>
<path d="M19.6725 7.32746C20.501 7.32746 21.1725 6.65592 21.1725 5.82748C21.1725 4.99905 20.501 4.32746 19.6725 4.32746C18.8441 4.32746 18.1725 4.99905 18.1725 5.82748C18.1725 6.65592 18.8441 7.32746 19.6725 7.32746Z" fill="#050505"/>
<path fill-rule="evenodd" clip-rule="evenodd" d="M13 0C9.6052 0 9.17952 0.0143895 7.84627 0.0752221C6.51579 0.135906 5.60712 0.347233 4.81203 0.656259C3.99004 0.975655 3.29294 1.40307 2.59798 2.09798C1.90307 2.79294 1.47565 3.49004 1.15626 4.31203C0.847233 5.10712 0.635906 6.01579 0.575222 7.34627C0.514389 8.67952 0.5 9.1052 0.5 12.5C0.5 15.8948 0.514389 16.3205 0.575222 17.6537C0.635906 18.9842 0.847233 19.8929 1.15626 20.688C1.47565 21.51 1.90307 22.2071 2.59798 22.902C3.29294 23.5969 3.99004 24.0243 4.81203 24.3438C5.60712 24.6528 6.51579 24.8641 7.84627 24.9248C9.17952 24.9856 9.6052 25 13 25C16.3948 25 16.8205 24.9856 18.1537 24.9248C19.4842 24.8641 20.3929 24.6528 21.188 24.3438C22.01 24.0243 22.7071 23.5969 23.402 22.902C24.0969 22.2071 24.5243 21.51 24.8438 20.688C25.1528 19.8929 25.3641 18.9842 25.4248 17.6537C25.4856 16.3205 25.5 15.8948 25.5 12.5C25.5 9.1052 25.4856 8.67952 25.4248 7.34627C25.3641 6.01579 25.1528 5.10712 24.8438 4.31203C24.5243 3.49004 24.0969 2.79294 23.402 2.09798C22.7071 1.40307 22.01 0.975655 21.188 0.656259C20.3929 0.347233 19.4842 0.135906 18.1537 0.0752221C16.8205 0.0143895 16.3948 0 13 0ZM13 2.25225C16.3376 2.25225 16.733 2.265 18.0511 2.32514C19.2698 2.38071 19.9317 2.58435 20.3721 2.75553C20.9556 2.98229 21.372 3.25316 21.8094 3.6906C22.2468 4.12799 22.5177 4.54439 22.7445 5.12786C22.9157 5.56832 23.1193 6.23019 23.1749 7.44893C23.235 8.767 23.2478 9.16236 23.2478 12.5C23.2478 15.8376 23.235 16.233 23.1749 17.5511C23.1193 18.7698 22.9157 19.4317 22.7445 19.8721C22.5177 20.4556 22.2468 20.872 21.8094 21.3094C21.372 21.7468 20.9556 22.0177 20.3721 22.2445C19.9317 22.4157 19.2698 22.6193 18.0511 22.6749C16.7332 22.735 16.3379 22.7478 13 22.7478C9.66212 22.7478 9.26686 22.735 7.94893 22.6749C6.73019 22.6193 6.06833 22.4157 5.62786 22.2445C5.04439 22.0177 4.62799 21.7468 4.1906 21.3094C3.75321 20.872 3.48229 20.4556 3.25553 19.8721C3.08435 19.4317 2.88071 18.7698 2.82514 17.5511C2.765 16.233 2.75225 15.8376 2.75225 12.5C2.75225 9.16236 2.765 8.767 2.82514 7.44893C2.88071 6.23019 3.08435 5.56832 3.25553 5.12786C3.48229 4.54439 3.75316 4.12799 4.1906 3.6906C4.62799 3.25316 5.04439 2.98229 5.62786 2.75553C6.06833 2.58435 6.73019 2.38071 7.94893 2.32514C9.267 2.265 9.66237 2.25225 13 2.25225Z" fill="#4E60D3"/>
<path fill-rule="evenodd" clip-rule="evenodd" d="M13 0C9.6052 0 9.17952 0.0143895 7.84627 0.0752221C6.51579 0.135906 5.60712 0.347233 4.81203 0.656259C3.99004 0.975655 3.29294 1.40307 2.59798 2.09798C1.90307 2.79294 1.47565 3.49004 1.15626 4.31203C0.847233 5.10712 0.635906 6.01579 0.575222 7.34627C0.514389 8.67952 0.5 9.1052 0.5 12.5C0.5 15.8948 0.514389 16.3205 0.575222 17.6537C0.635906 18.9842 0.847233 19.8929 1.15626 20.688C1.47565 21.51 1.90307 22.2071 2.59798 22.902C3.29294 23.5969 3.99004 24.0243 4.81203 24.3438C5.60712 24.6528 6.51579 24.8641 7.84627 24.9248C9.17952 24.9856 9.6052 25 13 25C16.3948 25 16.8205 24.9856 18.1537 24.9248C19.4842 24.8641 20.3929 24.6528 21.188 24.3438C22.01 24.0243 22.7071 23.5969 23.402 22.902C24.0969 22.2071 24.5243 21.51 24.8438 20.688C25.1528 19.8929 25.3641 18.9842 25.4248 17.6537C25.4856 16.3205 25.5 15.8948 25.5 12.5C25.5 9.1052 25.4856 8.67952 25.4248 7.34627C25.3641 6.01579 25.1528 5.10712 24.8438 4.31203C24.5243 3.49004 24.0969 2.79294 23.402 2.09798C22.7071 1.40307 22.01 0.975655 21.188 0.656259C20.3929 0.347233 19.4842 0.135906 18.1537 0.0752221C16.8205 0.0143895 16.3948 0 13 0ZM13 2.25225C16.3376 2.25225 16.733 2.265 18.0511 2.32514C19.2698 2.38071 19.9317 2.58435 20.3721 2.75553C20.9556 2.98229 21.372 3.25316 21.8094 3.6906C22.2468 4.12799 22.5177 4.54439 22.7445 5.12786C22.9157 5.56832 23.1193 6.23019 23.1749 7.44893C23.235 8.767 23.2478 9.16236 23.2478 12.5C23.2478 15.8376 23.235 16.233 23.1749 17.5511C23.1193 18.7698 22.9157 19.4317 22.7445 19.8721C22.5177 20.4556 22.2468 20.872 21.8094 21.3094C21.372 21.7468 20.9556 22.0177 20.3721 22.2445C19.9317 22.4157 19.2698 22.6193 18.0511 22.6749C16.7332 22.735 16.3379 22.7478 13 22.7478C9.66212 22.7478 9.26686 22.735 7.94893 22.6749C6.73019 22.6193 6.06833 22.4157 5.62786 22.2445C5.04439 22.0177 4.62799 21.7468 4.1906 21.3094C3.75321 20.872 3.48229 20.4556 3.25553 19.8721C3.08435 19.4317 2.88071 18.7698 2.82514 17.5511C2.765 16.233 2.75225 15.8376 2.75225 12.5C2.75225 9.16236 2.765 8.767 2.82514 7.44893C2.88071 6.23019 3.08435 5.56832 3.25553 5.12786C3.48229 4.54439 3.75316 4.12799 4.1906 3.6906C4.62799 3.25316 5.04439 2.98229 5.62786 2.75553C6.06833 2.58435 6.73019 2.38071 7.94893 2.32514C9.267 2.265 9.66237 2.25225 13 2.25225Z" fill="#050505"/>
</svg>
