<svg width="26" height="25" viewBox="0 0 26 25" fill="none" xmlns="http://www.w3.org/2000/svg">
<path d="M21.8012 21.3016H18.097V15.5005C18.097 14.1172 18.0723 12.3364 16.1704 12.3364C14.2411 12.3364 13.9459 13.8436 13.9459 15.3998V21.3012H10.2417V9.37181H13.7978V11.0021H13.8475C14.5726 9.76229 15.9209 9.02181 17.3561 9.07508C21.1105 9.07508 21.8027 11.5446 21.8027 14.7573L21.8012 21.3016ZM6.06212 7.74115C4.87492 7.74136 3.91234 6.7791 3.91213 5.59188C3.91191 4.40466 4.87415 3.44206 6.06134 3.44185C7.24854 3.44163 8.21112 4.40389 8.21133 5.59111C8.21144 6.16123 7.98506 6.70805 7.582 7.11126C7.17895 7.51447 6.63223 7.74105 6.06212 7.74115ZM7.91422 21.3016H4.20615V9.37181H7.91422V21.3016ZM23.6479 0.00186414H2.34478C1.33795 -0.00949818 0.512288 0.797011 0.5 1.80385V23.1958C0.511867 24.2031 1.33746 25.0104 2.34478 24.9999H23.6479C24.6572 25.0124 25.486 24.2051 25.5 23.1958V1.80231C25.4856 0.793479 24.6567 -0.0129846 23.6479 0.000158387" fill="#050505"/>
</svg>
